<svg xmlns:xlink="http://www.w3.org/1999/xlink" height="290" width="600" xmlns="http://www.w3.org/2000/svg" style="font-family:'lucida grande', 'lucida sans unicode', verdana, arial, helvetica, sans-serif;font-size:12px;" version="1.1"><desc>Created with Highcharts 3.0.10</desc><defs><clipPath id="highcharts-3"><rect height="236" width="580" y="0" x="0"></rect></clipPath></defs><rect class=" highcharts-background" fill="#FFFFFF" ry="5" rx="5" height="290" width="600" y="0" x="0"></rect><g  class="highcharts-series-group"><g style="cursor:pointer;" transform="translate(10,39) scale(1 1)"  visibility="visible" class="highcharts-series highcharts-tracker"><path visibility="inherit" stroke-width="1" stroke="#000000" d="M 295 10 C 290 10 290 18 290 29 L 290 40" fill="none"></path><path visibility="inherit" stroke-width="1" stroke="#000000" d="M 357.60990336999413 30 C 352.60990336999413 30 290 18 290 29 L 290 40" fill="none"></path><path visibility="inherit" stroke-width="1" stroke="#000000" d="M 378.90470785361214 50 C 373.90470785361214 50 290 18 290 29 L 290 40" fill="none"></path><path visibility="inherit" stroke-width="1" stroke="#000000" d="M 391.7470929795826 70 C 386.7470929795826 70 290 18 290 29 L 290 40" fill="none"></path><path visibility="inherit" stroke-width="1" stroke="#000000" d="M 399.3072384832424 90 C 394.3072384832424 90 290 18 290 29 L 290 40" fill="none"></path><path visibility="inherit" stroke-width="1" stroke="#000000" d="M 402.7032961426901 110 C 397.7032961426901 110 290 18 290 29 L 290 40" fill="none"></path><path visibility="inherit" stroke-width="1" stroke="#000000" d="M 402.3312629199899 130 C 397.3312629199899 130 290 18 290 29 L 290 40" fill="none"></path><path visibility="inherit" stroke-width="1" stroke="#000000" d="M 398.150375665821 150 C 393.150375665821 150 290 18 290 29 L 290 40" fill="none"></path><path visibility="inherit" stroke-width="1" stroke="#000000" d="M 389.65727652959384 170 C 384.65727652959384 170 376.6025403784439 67.99999999999999 367.07626093681506 73.49999999999999 L 357.5499814951862 78.99999999999999" fill="none"></path><path visibility="inherit" stroke-width="1" stroke="#000000" d="M 375.4984471899924 190 C 370.4984471899924 190 376.6025403784439 167.99999999999994 367.07626093681506 162.49999999999994 L 357.5499814951862 156.99999999999994" fill="none"></path><path visibility="inherit" stroke-width="1" stroke="#000000" d="M 295 226 C 290 226 290.00000000000006 218 290.00000000000006 207 L 290.00000000000006 196" fill="none"></path><path visibility="inherit" stroke-width="1" stroke="#000000" d="M 191.46925639128068 172.0000000000001 C 196.46925639128068 172.0000000000001 203.3974596215562 168.00000000000009 212.92373906318502 162.50000000000009 L 222.45001850481384 157.00000000000009" fill="none"></path><path visibility="inherit" stroke-width="1" stroke="#000000" d="M 191.46925639128054 64.00000000000016 C 196.46925639128054 64.00000000000016 203.39745962155604 68.00000000000014 212.92373906318488 73.50000000000013 L 222.45001850481373 79.00000000000011" fill="none"></path><path visibility="inherit" stroke-width="1" stroke="#000000" d="M 285 10 C 290 10 289.99999999999983 18 289.99999999999983 29 L 289.99999999999983 40" fill="none"></path><path visibility="inherit" stroke-width="1" stroke="#000000" d="M 222.39009663000587 30 C 227.39009663000587 30 289.99999999999983 18 289.99999999999983 29 L 289.99999999999983 40" fill="none"></path><path visibility="inherit" transform="translate(0,0)" stroke-linejoin="round" stroke-width="1" stroke="#FFFFFF" d="M 289.9841134901118 40.000001617828204 A 78 78 0 0 1 289.90611351267285 40.00005650433138 L 290 118 A 0 0 0 0 0 290 118 Z" fill="#2f7ed8"></path><path visibility="inherit" transform="translate(0,0)" stroke-linejoin="round" stroke-width="1" stroke="#FFFFFF" d="M 289.9841134901118 40.000001617828204 A 78 78 0 0 1 289.90611351267285 40.00005650433138 L 290 118 A 0 0 0 0 0 290 118 Z" fill="#0d233a"></path><path visibility="inherit" transform="translate(0,0)" stroke-linejoin="round" stroke-width="1" stroke="#FFFFFF" d="M 289.9841134901118 40.000001617828204 A 78 78 0 0 1 289.90611351267285 40.00005650433138 L 290 118 A 0 0 0 0 0 290 118 Z" fill="#8bbc21"></path><path visibility="inherit" transform="translate(0,0)" stroke-linejoin="round" stroke-width="1" stroke="#FFFFFF" d="M 289.9841134901118 40.000001617828204 A 78 78 0 0 1 289.90611351267285 40.00005650433138 L 290 118 A 0 0 0 0 0 290 118 Z" fill="#910000"></path><path visibility="inherit" transform="translate(0,0)" stroke-linejoin="round" stroke-width="1" stroke="#FFFFFF" d="M 289.9841134901118 40.000001617828204 A 78 78 0 0 1 289.90611351267285 40.00005650433138 L 290 118 A 0 0 0 0 0 290 118 Z" fill="#1aadce"></path><path visibility="inherit" transform="translate(0,0)" stroke-linejoin="round" stroke-width="1" stroke="#FFFFFF" d="M 289.9841134901118 40.000001617828204 A 78 78 0 0 1 289.90611351267285 40.00005650433138 L 290 118 A 0 0 0 0 0 290 118 Z" fill="#492970"></path><path visibility="inherit" transform="translate(0,0)" stroke-linejoin="round" stroke-width="1" stroke="#FFFFFF" d="M 289.9841134901118 40.000001617828204 A 78 78 0 0 1 289.90611351267285 40.00005650433138 L 290 118 A 0 0 0 0 0 290 118 Z" fill="#f28f43"></path><path visibility="inherit" transform="translate(0,0)" stroke-linejoin="round" stroke-width="1" stroke="#FFFFFF" d="M 289.9841134901118 40.000001617828204 A 78 78 0 0 1 289.90611351267285 40.00005650433138 L 290 118 A 0 0 0 0 0 290 118 Z" fill="#77a1e5"></path><path visibility="inherit" transform="translate(0,0)" stroke-linejoin="round" stroke-width="1" stroke="#FFFFFF" d="M 289.9841134901118 40.000001617828204 A 78 78 0 0 1 357.57332163270246 156.95954573045407 L 290 118 A 0 0 0 0 0 290 118 Z" fill="#c42525"></path><path visibility="inherit" transform="translate(0,0)" stroke-linejoin="round" stroke-width="1" stroke="#FFFFFF" d="M 357.5343283068073 157.02709956105332 A 78 78 0 0 1 357.57332163270246 156.95954573045407 L 290 118 A 0 0 0 0 0 290 118 Z" fill="#a6c96a"></path><path visibility="inherit" transform="translate(0,0)" stroke-linejoin="round" stroke-width="1" stroke="#FFFFFF" d="M 357.5343283068073 157.02709956105332 A 78 78 0 0 1 357.57332163270246 156.95954573045407 L 290 118 A 0 0 0 0 0 290 118 Z" fill="#2f7ed8"></path><path visibility="inherit" transform="translate(0,0)" stroke-linejoin="round" stroke-width="1" stroke="#FFFFFF" d="M 357.5343283068073 157.02709956105332 A 78 78 0 0 1 357.57332163270246 156.95954573045407 L 290 118 A 0 0 0 0 0 290 118 Z" fill="#0d233a"></path><path visibility="inherit" transform="translate(0,0)" stroke-linejoin="round" stroke-width="1" stroke="#FFFFFF" d="M 357.5343283068073 157.02709956105332 A 78 78 0 0 1 357.57332163270246 156.95954573045407 L 290 118 A 0 0 0 0 0 290 118 Z" fill="#8bbc21"></path><path visibility="inherit" transform="translate(0,0)" stroke-linejoin="round" stroke-width="1" stroke="#FFFFFF" d="M 357.5343283068073 157.02709956105332 A 78 78 0 0 1 357.57332163270246 156.95954573045407 L 290 118 A 0 0 0 0 0 290 118 Z" fill="#910000"></path><path visibility="inherit" transform="translate(0,0)" stroke-linejoin="round" stroke-width="1" stroke="#FFFFFF" d="M 357.5343283068073 157.02709956105332 A 78 78 0 0 1 357.57332163270246 156.95954573045407 L 290 118 A 0 0 0 0 0 290 118 Z" fill="#1aadce"></path><path visibility="inherit" transform="translate(0,0)" stroke-linejoin="round" stroke-width="1" stroke="#FFFFFF" d="M 357.5343283068073 157.02709956105332 A 78 78 0 0 1 357.57332163270246 156.95954573045407 L 290 118 A 0 0 0 0 0 290 118 Z" fill="#492970"></path><path visibility="inherit" transform="translate(0,0)" stroke-linejoin="round" stroke-width="1" stroke="#FFFFFF" d="M 357.5343283068073 157.02709956105332 A 78 78 0 0 1 357.57332163270246 156.95954573045407 L 290 118 A 0 0 0 0 0 290 118 Z" fill="#f28f43"></path><path visibility="inherit" transform="translate(0,0)" stroke-linejoin="round" stroke-width="1" stroke="#FFFFFF" d="M 357.5343283068073 157.02709956105332 A 78 78 0 0 1 357.57332163270246 156.95954573045407 L 290 118 A 0 0 0 0 0 290 118 Z" fill="#77a1e5"></path><path visibility="inherit" transform="translate(0,0)" stroke-linejoin="round" stroke-width="1" stroke="#FFFFFF" d="M 357.5343283068073 157.02709956105332 A 78 78 0 0 1 357.57332163270246 156.95954573045407 L 290 118 A 0 0 0 0 0 290 118 Z" fill="#c42525"></path><path visibility="inherit" transform="translate(0,0)" stroke-linejoin="round" stroke-width="1" stroke="#FFFFFF" d="M 357.5343283068073 157.02709956105332 A 78 78 0 0 1 222.48881310281303 157.06711716691018 L 290 118 A 0 0 0 0 0 290 118 Z" fill="#a6c96a"></path><path visibility="inherit" transform="translate(0,0)" stroke-linejoin="round" stroke-width="1" stroke="#FFFFFF" d="M 222.44977974774793 156.9995864577079 A 78 78 0 0 1 222.48881310281303 157.06711716691018 L 290 118 A 0 0 0 0 0 290 118 Z" fill="#2f7ed8"></path><path visibility="inherit" transform="translate(0,0)" stroke-linejoin="round" stroke-width="1" stroke="#FFFFFF" d="M 222.44977974774793 156.9995864577079 A 78 78 0 0 1 289.89165956483043 40.00007524138175 L 290 118 A 0 0 0 0 0 290 118 Z" fill="#0d233a"></path><path visibility="inherit" transform="translate(0,0)" stroke-linejoin="round" stroke-width="1" stroke="#FFFFFF" d="M 289.96965953075926 40.00000590092377 A 78 78 0 0 1 289.89165956483043 40.00007524138175 L 290 118 A 0 0 0 0 0 290 118 Z" fill="#8bbc21"></path><path visibility="inherit" transform="translate(0,0)" stroke-linejoin="round" stroke-width="1" stroke="#FFFFFF" d="M 289.96965953075926 40.00000590092377 A 78 78 0 0 1 289.89165956483043 40.00007524138175 L 290 118 A 0 0 0 0 0 290 118 Z" fill="#910000"></path></g><g transform="translate(10,39) scale(1 1)"  visibility="visible" class="highcharts-markers"></g></g><text style="color:#274b6d;font-size:16px;fill:#274b6d;width:536px;"  class="highcharts-title" text-anchor="middle" y="25" x="300"><tspan x="300">Membros por Categoria</tspan></text><g style="cursor:pointer;" transform="translate(10,39) scale(1 1)"  visibility="visible" class="highcharts-data-labels highcharts-tracker"><g visibility="inherit" transform="translate(300,0)" style="cursor:pointer;" ><text style="font-size:11px;color:#000000;fill:#000000;"  y="15" x="3"><tspan x="3" style="font-weight:bold">CRIANCAS 0 A 3 ANOS</tspan><tspan dx="0">: 0 % </tspan></text></g><g visibility="inherit" transform="translate(363,20)" style="cursor:pointer;" ><text style="font-size:11px;color:#000000;fill:#000000;"  y="15" x="3"><tspan x="3" style="font-weight:bold">CRIANCAS 3 A 6 ANOS</tspan><tspan dx="0">: 0 % </tspan></text></g><g visibility="inherit" transform="translate(384,40)" style="cursor:pointer;" ><text style="font-size:11px;color:#000000;fill:#000000;"  y="15" x="3"><tspan x="3" style="font-weight:bold">IDOSOS</tspan><tspan dx="0">: 0 % </tspan></text></g><g visibility="inherit" transform="translate(397,60)" style="cursor:pointer;" ><text style="font-size:11px;color:#000000;fill:#000000;"  y="15" x="3"><tspan x="3" style="font-weight:bold">JOVENS</tspan><tspan dx="0">: 0 % </tspan></text></g><g visibility="inherit" transform="translate(404,80)" style="cursor:pointer;" ><text style="font-size:11px;color:#000000;fill:#000000;"  y="15" x="3"><tspan x="3" style="font-weight:bold">ADOLESCENTES</tspan><tspan dx="0">: 0 % </tspan></text></g><g visibility="inherit" transform="translate(408,100)" style="cursor:pointer;" ><text style="font-size:11px;color:#000000;fill:#000000;"  y="15" x="3"><tspan x="3" style="font-weight:bold">CATEGORIA 1</tspan><tspan dx="0">: 0 % </tspan></text></g><g visibility="inherit" transform="translate(407,120)" style="cursor:pointer;" ><text style="font-size:11px;color:#000000;fill:#000000;"  y="15" x="3"><tspan x="3" style="font-weight:bold">CATEGORIA 2</tspan><tspan dx="0">: 0 % </tspan></text></g><g visibility="inherit" transform="translate(403,140)" style="cursor:pointer;" ><text style="font-size:11px;color:#000000;fill:#000000;"  y="15" x="3"><tspan x="3" style="font-weight:bold">CATEGORIA 3</tspan><tspan dx="0">: 0 % </tspan></text></g><g visibility="inherit" transform="translate(395,160)" style="cursor:pointer;" ><text style="font-size:11px;color:#000000;fill:#000000;"  y="15" x="3"><tspan x="3" style="font-weight:bold">CATEGORIA 4</tspan><tspan dx="0">: 33 % </tspan></text></g><g visibility="inherit" transform="translate(380,180)" style="cursor:pointer;" ><text style="font-size:11px;color:#000000;fill:#000000;"  y="15" x="3"><tspan x="3" style="font-weight:bold">CATEGORIA 6</tspan><tspan dx="0">: 0 % </tspan></text></g><g visibility="inherit" transform="translate(0,-999)" style="cursor:pointer;" ><text style="font-size:11px;color:#000000;fill:#000000;"  y="15" x="3"><tspan x="3" style="font-weight:bold">CATEGORIA 7</tspan><tspan dx="0">: 0 % </tspan></text></g><g visibility="inherit" transform="translate(0,-999)" style="cursor:pointer;" ><text style="font-size:11px;color:#000000;fill:#000000;"  y="15" x="3"><tspan x="3" style="font-weight:bold">CATEGORIA 8</tspan><tspan dx="0">: 0 % </tspan></text></g><g visibility="inherit" transform="translate(0,-999)" style="cursor:pointer;" ><text style="font-size:11px;color:#000000;fill:#000000;"  y="15" x="3"><tspan x="3" style="font-weight:bold">CATEGORIA 9</tspan><tspan dx="0">: 0 % </tspan></text></g><g visibility="inherit" transform="translate(0,-999)" style="cursor:pointer;" ><text style="font-size:11px;color:#000000;fill:#000000;"  y="15" x="3"><tspan x="3" style="font-weight:bold">CATEGORIA 10</tspan><tspan dx="0">: 0 % </tspan></text></g><g visibility="inherit" transform="translate(0,-999)" style="cursor:pointer;" ><text style="font-size:11px;color:#000000;fill:#000000;"  y="15" x="3"><tspan x="3" style="font-weight:bold">CATEGORIA 11</tspan><tspan dx="0">: 0 % </tspan></text></g><g visibility="inherit" transform="translate(0,-999)" style="cursor:pointer;" ><text style="font-size:11px;color:#000000;fill:#000000;"  y="15" x="3"><tspan x="3" style="font-weight:bold">CATEGORIA 12</tspan><tspan dx="0">: 0 % </tspan></text></g><g visibility="inherit" transform="translate(0,-999)" style="cursor:pointer;" ><text style="font-size:11px;color:#000000;fill:#000000;"  y="15" x="3"><tspan x="3" style="font-weight:bold">CATEGORIA 13</tspan><tspan dx="0">: 0 % </tspan></text></g><g visibility="inherit" transform="translate(0,-999)" style="cursor:pointer;" ><text style="font-size:11px;color:#000000;fill:#000000;"  y="15" x="3"><tspan x="3" style="font-weight:bold">CATEGORIA 14</tspan><tspan dx="0">: 0 % </tspan></text></g><g visibility="inherit" transform="translate(0,-999)" style="cursor:pointer;" ><text style="font-size:11px;color:#000000;fill:#000000;"  y="15" x="3"><tspan x="3" style="font-weight:bold">CATEGORIA 15</tspan><tspan dx="0">: 0 % </tspan></text></g><g visibility="inherit" transform="translate(300,216)" style="cursor:pointer;" ><text style="font-size:11px;color:#000000;fill:#000000;"  y="15" x="3"><tspan x="3" style="font-weight:bold">CATEGORIA 16</tspan><tspan dx="0">: 33 % </tspan></text></g><g visibility="inherit" transform="translate(71,162)" style="cursor:pointer;" ><text style="font-size:11px;color:#000000;fill:#000000;"  y="15" x="3"><tspan x="3" style="font-weight:bold">CATEGORIA 17</tspan><tspan dx="0">: 0 % </tspan></text></g><g visibility="inherit" transform="translate(64,54)" style="cursor:pointer;" ><text style="font-size:11px;color:#000000;fill:#000000;"  y="15" x="3"><tspan x="3" style="font-weight:bold">CATEGORIA 18</tspan><tspan dx="0">: 33 % </tspan></text></g><g visibility="inherit" transform="translate(165,0)" style="cursor:pointer;" ><text style="font-size:11px;color:#000000;fill:#000000;"  y="15" x="3"><tspan x="3" style="font-weight:bold">CATEGORIA 19</tspan><tspan dx="0">: 0 % </tspan></text></g><g visibility="inherit" transform="translate(102,20)" style="cursor:pointer;" ><text style="font-size:11px;color:#000000;fill:#000000;"  y="15" x="3"><tspan x="3" style="font-weight:bold">CATEGORIA 20</tspan><tspan dx="0">: 0 % </tspan></text></g></g><g  class="highcharts-legend"><rect visibility="hidden" fill="none" stroke-width="1" stroke="#909090" ry="5" rx="5" height="7" width="7" y="0.5" x="0.5"></rect><g ><g></g></g></g><g transform="translate(0,-9999)" style="cursor:default;padding:0;white-space:nowrap;"  class="highcharts-tooltip"><rect transform="translate(1, 1)" stroke-width="5" stroke-opacity="0.049999999999999996" stroke="black"  ry="3" rx="3" fill-opacity="0.85" fill="none" height="16" width="16" y="0.5" x="0.5"></rect><rect transform="translate(1, 1)" stroke-width="3" stroke-opacity="0.09999999999999999" stroke="black"  ry="3" rx="3" fill-opacity="0.85" fill="none" height="16" width="16" y="0.5" x="0.5"></rect><rect transform="translate(1, 1)" stroke-width="1" stroke-opacity="0.15" stroke="black"  ry="3" rx="3" fill-opacity="0.85" fill="none" height="16" width="16" y="0.5" x="0.5"></rect><rect ry="3" rx="3" fill-opacity="0.85" fill="rgb(255,255,255)" height="16" width="16" y="0.5" x="0.5"></rect><text style="font-size:12px;color:#333333;fill:#333333;"  y="21" x="8"></text></g></svg>